<?xml version="1.0" standalone="no"?><!DOCTYPE svg PUBLIC "-//W3C//DTD SVG 1.1//EN" "http://www.w3.org/Graphics/SVG/1.1/DTD/svg11.dtd"><svg t="1583564243255" class="icon" viewBox="0 0 1027 1024" version="1.1" xmlns="http://www.w3.org/2000/svg" p-id="2526" xmlns:xlink="http://www.w3.org/1999/xlink" width="200.5859375" height="200"><defs><style type="text/css">* { color: rgb(153, 153, 153) !important; text-shadow: rgb(0, 0, 0) 0px 0px 3px !important; box-shadow: none !important; background-color: transparent !important; border-color: rgb(68, 68, 68) !important; }
* { color: rgb(204, 204, 204) !important; border-color: rgb(68, 68, 68) !important; outline-color: rgb(68, 68, 68) !important; text-shadow: none !important; }
</style></defs><path d="M842.06843281 62c16.6314955 0 32.14254463 3.19839786 46.53489815 9.59519443s27.02563242 15.031858 37.89983672 25.90606231 19.50926572 23.50748232 25.90606143 37.89983584 9.59519443 29.90427891 9.59519531 46.53489814V842.06400927c0 16.6314955-3.19839786 32.14254463-9.59519531 46.53489815s-15.031858 27.02563242-25.90606143 37.89983584c-10.87420342 10.87420342-23.50748232 19.50926572-37.89983672 25.90606231s-29.90427891 9.59519443-46.53489815 9.59519443H181.94041513c-16.6314955 0-32.14254463-3.19839786-46.53489814-9.59519443s-27.02563242-15.031858-37.89983672-25.90606231C86.63147685 915.62541612 77.99553916 902.99213721 71.59874258 888.59978281S62.00442442 858.69550479 62.00442442 842.06488467V181.93599073c0-16.6314955 3.19839786-32.14254463 9.59519443-46.53489815s15.031858-27.02563242 25.90606143-37.89983584 23.50748232-19.50926572 37.89983672-25.90606231S165.30891963 62 181.94041513 62H842.06843281zM238.55057422 867.97094698c12.1532124 0 23.66779658-2.23914199 34.542-6.71654883s20.30908447-10.71476543 28.30464229-18.71032325 14.23204013-17.43043799 18.71032236-28.30464141c4.47740683-10.87420342 6.71654883-22.38791133 6.71654883-34.542 0-12.1532124-2.23914199-23.66692031-6.71654883-34.542-4.47740683-10.87420342-10.71388916-20.30908447-18.71032236-28.3046414s-17.43043799-14.23204013-28.30464229-18.71032324c-10.87420342-4.47740683-22.38791133-6.71654883-34.542-6.71654883-12.79359317 0-24.46673906 2.23914199-35.02119024 6.71654883-10.55445117 4.47740683-19.98933222 10.71476543-28.3046414 18.71032324s-14.71210576 17.43043799-19.18951348 28.3046414c-4.47740683 10.87420342-6.71654883 22.38791133-6.71654882 34.542 0 12.1532124 2.23914199 23.66692031 6.71654883 34.542 4.47740683 10.87420342 10.87420342 20.30908447 19.18951347 28.30464141s17.75019023 14.23204013 28.3046414 18.71032325c10.5535749 4.47740683 22.22759707 6.71654883 35.02119024 6.71654882z m241.7904958-24.94680557h34.542c9.59519443 0 19.03007549 0.15943799 28.30464141 0.4800665 9.27544219 0.31975224 19.03007549 0.48006651 29.26477441 0.4800665s21.74840684-0.31975224 34.542-0.95925673c0-58.20892031-11.19395566-113.06000479-33.58186699-164.55237627-22.38791133-51.49237148-52.77225674-96.42850927-91.15128369-134.80841162-38.37990234-38.37990234-83.31516386-68.60393349-134.80841074-90.67209258-51.49237148-22.06815908-106.34345596-33.10267676-164.55237627-33.10267676-0.6395045 15.35161026-0.95925674 27.82545117-0.95925674 37.41976934v26.86531904c0 8.95481455 0.16031425 18.07081875 0.4800665 27.34538466 0.31975224 9.27544219 0.48006651 20.94858809 0.48006563 35.02119024 40.93792031 0 79.47726152 7.67580557 115.61802275 23.02741582s67.64380049 36.46051347 94.50999493 63.32583252c26.86531904 26.86531904 48.13453565 58.36923458 63.80589901 94.50999492s23.50573066 74.68185411 23.50572979 115.61977442z m244.67001768-1.91938888c23.02741582 0 38.37990234 0.16031425 46.0557079 0.48006563 7.67580557 0.31975224 13.43309766 0.79981875 17.271 1.43932325s8.79537568 0.95925674 14.87242003 0.95925674c6.07704433 0 19.03007549-0.6395045 38.85909345-1.91851348 0-90.83153057-17.271-176.06608418-51.81212372-255.70365909-34.542-79.6375749-81.55696464-149.20076513-141.04489395-208.68869443S519.99998135 271.16876094 440.0426542 236.62676094s-165.35219502-51.81212373-256.18372558-51.81212373c-0.6395045 15.99111474-0.95925674 27.50569893-0.95925675 34.542v15.35161025c0 2.55889336 0.16031425 4.31796885 0.48006651 5.27722559 0.31975224 0.95925674 0.48006651 3.19839786 0.48006651 6.71654883s0.16031425 9.27544219 0.48006562 17.271c0.31975224 7.99555781 0.48006651 20.62883672 0.4800665 37.89983671 74.84041582 0 145.04311055 14.07260214 210.60808418 42.21780469S518.2426584 410.77520791 567.17613653 459.70868604 654.64983125 565.89182773 682.7941584 631.45680049c28.14432715 65.56497364 42.2169293 135.44791612 42.21692929 209.64795204z" p-id="2527" fill="#e64d42"></path></svg>