<?xml version="1.0" standalone="no"?><!DOCTYPE svg PUBLIC "-//W3C//DTD SVG 1.1//EN" "http://www.w3.org/Graphics/SVG/1.1/DTD/svg11.dtd"><svg t="1583564546166" class="icon" viewBox="0 0 1024 1024" version="1.1" xmlns="http://www.w3.org/2000/svg" p-id="5840" xmlns:xlink="http://www.w3.org/1999/xlink" width="200" height="200"><defs><style type="text/css">* { color: rgb(153, 153, 153) !important; text-shadow: rgb(0, 0, 0) 0px 0px 3px !important; box-shadow: none !important; background-color: transparent !important; border-color: rgb(68, 68, 68) !important; }
* { color: rgb(204, 204, 204) !important; border-color: rgb(68, 68, 68) !important; outline-color: rgb(68, 68, 68) !important; text-shadow: none !important; }
</style></defs><path d="M512 42.666667C252.8 42.666667 42.666667 252.789333 42.666667 512s210.133333 469.333333 469.333333 469.333333 469.333333-210.122667 469.333333-469.333333S771.2 42.666667 512 42.666667z m0 853.333333c-212.074667 0-384-171.925333-384-384s171.925333-384 384-384 384 171.925333 384 384-171.925333 384-384 384z" fill="#88ee73" p-id="5841"></path><path d="M685.696 396.48a42.688 42.688 0 0 0-60.341333 0L474.506667 547.338667l-60.341334-60.341334a42.666667 42.666667 0 1 0-60.341333 60.352l90.496 90.485334a42.688 42.688 0 0 0 60.352 0l181.013333-181.013334a42.645333 42.645333 0 0 0 0.010667-60.341333z" fill="#88ee73" p-id="5842"></path></svg>